<mxfile host="app.diagrams.net" modified="2021-04-01T03:33:05.193Z" agent="5.0 (Windows NT 10.0; Win64; x64) AppleWebKit/537.36 (KHTML, like Gecko) Chrome/89.0.4389.90 Safari/537.36" etag="FVmoL-Q7vk9_RSWsY6RZ" version="14.5.3" type="github">
  <diagram id="C5RBs43oDa-KdzZeNtuy" name="Page-1">
    <mxGraphModel dx="1483" dy="783" grid="0" gridSize="10" guides="1" tooltips="1" connect="1" arrows="1" fold="1" page="1" pageScale="1" pageWidth="1169" pageHeight="827" math="0" shadow="0">
      <root>
        <mxCell id="WIyWlLk6GJQsqaUBKTNV-0" />
        <mxCell id="WIyWlLk6GJQsqaUBKTNV-1" parent="WIyWlLk6GJQsqaUBKTNV-0" />
        <mxCell id="iO6xYrpzPYlNcVCM8KC9-5" value="" style="edgeStyle=orthogonalEdgeStyle;rounded=0;orthogonalLoop=1;jettySize=auto;html=1;startArrow=ERmany;startFill=0;endArrow=ERone;endFill=0;fillColor=#f8cecc;strokeColor=#b85450;" edge="1" parent="WIyWlLk6GJQsqaUBKTNV-1" source="iO6xYrpzPYlNcVCM8KC9-0" target="iO6xYrpzPYlNcVCM8KC9-3">
          <mxGeometry relative="1" as="geometry" />
        </mxCell>
        <mxCell id="iO6xYrpzPYlNcVCM8KC9-8" value="" style="edgeStyle=orthogonalEdgeStyle;rounded=0;orthogonalLoop=1;jettySize=auto;html=1;startArrow=ERmany;startFill=0;endArrow=ERone;endFill=0;fillColor=#f8cecc;strokeColor=#b85450;entryX=0;entryY=1.167;entryDx=0;entryDy=0;entryPerimeter=0;" edge="1" parent="WIyWlLk6GJQsqaUBKTNV-1" source="iO6xYrpzPYlNcVCM8KC9-0" target="iO6xYrpzPYlNcVCM8KC9-7">
          <mxGeometry relative="1" as="geometry" />
        </mxCell>
        <mxCell id="iO6xYrpzPYlNcVCM8KC9-0" value="Material Inventory" style="swimlane;fontStyle=2;align=center;verticalAlign=top;childLayout=stackLayout;horizontal=1;startSize=26;horizontalStack=0;resizeParent=1;resizeLast=0;collapsible=1;marginBottom=0;rounded=0;shadow=0;strokeWidth=1;" vertex="1" parent="WIyWlLk6GJQsqaUBKTNV-1">
          <mxGeometry x="394" y="133" width="109" height="67.5" as="geometry">
            <mxRectangle x="230" y="140" width="160" height="26" as="alternateBounds" />
          </mxGeometry>
        </mxCell>
        <mxCell id="iO6xYrpzPYlNcVCM8KC9-1" value="" style="line;html=1;strokeWidth=1;align=left;verticalAlign=middle;spacingTop=-1;spacingLeft=3;spacingRight=3;rotatable=0;labelPosition=right;points=[];portConstraint=eastwest;" vertex="1" parent="iO6xYrpzPYlNcVCM8KC9-0">
          <mxGeometry y="26" width="109" height="8" as="geometry" />
        </mxCell>
        <mxCell id="iO6xYrpzPYlNcVCM8KC9-54" value="" style="edgeStyle=orthogonalEdgeStyle;rounded=0;orthogonalLoop=1;jettySize=auto;html=1;startArrow=ERone;startFill=0;endArrow=ERmany;endFill=0;fillColor=#f8cecc;strokeColor=#b85450;" edge="1" parent="WIyWlLk6GJQsqaUBKTNV-1" source="iO6xYrpzPYlNcVCM8KC9-3" target="iO6xYrpzPYlNcVCM8KC9-52">
          <mxGeometry relative="1" as="geometry" />
        </mxCell>
        <mxCell id="iO6xYrpzPYlNcVCM8KC9-82" value="" style="edgeStyle=orthogonalEdgeStyle;rounded=0;orthogonalLoop=1;jettySize=auto;html=1;startArrow=ERmany;startFill=0;endArrow=ERone;endFill=0;fillColor=#f8cecc;strokeColor=#b85450;" edge="1" parent="WIyWlLk6GJQsqaUBKTNV-1" source="iO6xYrpzPYlNcVCM8KC9-80" target="iO6xYrpzPYlNcVCM8KC9-3">
          <mxGeometry relative="1" as="geometry" />
        </mxCell>
        <mxCell id="iO6xYrpzPYlNcVCM8KC9-3" value="Raw Material" style="swimlane;fontStyle=2;align=center;verticalAlign=top;childLayout=stackLayout;horizontal=1;startSize=26;horizontalStack=0;resizeParent=1;resizeLast=0;collapsible=1;marginBottom=0;rounded=0;shadow=0;strokeWidth=1;" vertex="1" parent="WIyWlLk6GJQsqaUBKTNV-1">
          <mxGeometry x="240" y="132" width="116" height="69.5" as="geometry">
            <mxRectangle x="230" y="140" width="160" height="26" as="alternateBounds" />
          </mxGeometry>
        </mxCell>
        <mxCell id="iO6xYrpzPYlNcVCM8KC9-4" value="" style="line;html=1;strokeWidth=1;align=left;verticalAlign=middle;spacingTop=-1;spacingLeft=3;spacingRight=3;rotatable=0;labelPosition=right;points=[];portConstraint=eastwest;" vertex="1" parent="iO6xYrpzPYlNcVCM8KC9-3">
          <mxGeometry y="26" width="116" height="8" as="geometry" />
        </mxCell>
        <mxCell id="iO6xYrpzPYlNcVCM8KC9-18" value="Warehouse Manager(User)" style="swimlane;fontStyle=2;align=center;verticalAlign=top;childLayout=stackLayout;horizontal=1;startSize=26;horizontalStack=0;resizeParent=1;resizeLast=0;collapsible=1;marginBottom=0;rounded=0;shadow=0;strokeWidth=1;" vertex="1" parent="WIyWlLk6GJQsqaUBKTNV-1">
          <mxGeometry x="927" y="86" width="157" height="87.5" as="geometry">
            <mxRectangle x="230" y="140" width="160" height="26" as="alternateBounds" />
          </mxGeometry>
        </mxCell>
        <mxCell id="iO6xYrpzPYlNcVCM8KC9-19" value="" style="line;html=1;strokeWidth=1;align=left;verticalAlign=middle;spacingTop=-1;spacingLeft=3;spacingRight=3;rotatable=0;labelPosition=right;points=[];portConstraint=eastwest;" vertex="1" parent="iO6xYrpzPYlNcVCM8KC9-18">
          <mxGeometry y="26" width="157" height="8" as="geometry" />
        </mxCell>
        <mxCell id="iO6xYrpzPYlNcVCM8KC9-25" value="" style="edgeStyle=orthogonalEdgeStyle;rounded=0;orthogonalLoop=1;jettySize=auto;html=1;startArrow=ERmany;startFill=0;endArrow=none;endFill=0;" edge="1" parent="WIyWlLk6GJQsqaUBKTNV-1" source="iO6xYrpzPYlNcVCM8KC9-21" target="iO6xYrpzPYlNcVCM8KC9-23">
          <mxGeometry relative="1" as="geometry" />
        </mxCell>
        <mxCell id="iO6xYrpzPYlNcVCM8KC9-31" value="" style="edgeStyle=orthogonalEdgeStyle;rounded=0;orthogonalLoop=1;jettySize=auto;html=1;startArrow=ERmany;startFill=0;endArrow=ERone;endFill=0;fillColor=#f8cecc;strokeColor=#b85450;" edge="1" parent="WIyWlLk6GJQsqaUBKTNV-1" source="iO6xYrpzPYlNcVCM8KC9-21" target="iO6xYrpzPYlNcVCM8KC9-29">
          <mxGeometry relative="1" as="geometry" />
        </mxCell>
        <mxCell id="iO6xYrpzPYlNcVCM8KC9-37" value="" style="edgeStyle=orthogonalEdgeStyle;rounded=0;orthogonalLoop=1;jettySize=auto;html=1;startArrow=ERmany;startFill=0;endArrow=none;endFill=0;exitX=0.5;exitY=1;exitDx=0;exitDy=0;" edge="1" parent="WIyWlLk6GJQsqaUBKTNV-1" source="iO6xYrpzPYlNcVCM8KC9-35" target="iO6xYrpzPYlNcVCM8KC9-21">
          <mxGeometry relative="1" as="geometry">
            <mxPoint x="622.5" y="414" as="sourcePoint" />
          </mxGeometry>
        </mxCell>
        <mxCell id="iO6xYrpzPYlNcVCM8KC9-62" style="edgeStyle=orthogonalEdgeStyle;rounded=0;orthogonalLoop=1;jettySize=auto;html=1;exitX=0.5;exitY=1;exitDx=0;exitDy=0;entryX=1;entryY=0.5;entryDx=0;entryDy=0;startArrow=none;startFill=0;endArrow=ERmany;endFill=0;" edge="1" parent="WIyWlLk6GJQsqaUBKTNV-1" source="iO6xYrpzPYlNcVCM8KC9-21" target="iO6xYrpzPYlNcVCM8KC9-56">
          <mxGeometry relative="1" as="geometry" />
        </mxCell>
        <mxCell id="iO6xYrpzPYlNcVCM8KC9-21" value="Project" style="swimlane;fontStyle=2;align=center;verticalAlign=top;childLayout=stackLayout;horizontal=1;startSize=28;horizontalStack=0;resizeParent=1;resizeLast=0;collapsible=1;marginBottom=0;rounded=0;shadow=0;strokeWidth=1;" vertex="1" parent="WIyWlLk6GJQsqaUBKTNV-1">
          <mxGeometry x="568" y="439.94" width="113" height="122.5" as="geometry">
            <mxRectangle x="230" y="140" width="160" height="26" as="alternateBounds" />
          </mxGeometry>
        </mxCell>
        <mxCell id="iO6xYrpzPYlNcVCM8KC9-22" value="" style="line;html=1;strokeWidth=1;align=left;verticalAlign=middle;spacingTop=-1;spacingLeft=3;spacingRight=3;rotatable=0;labelPosition=right;points=[];portConstraint=eastwest;" vertex="1" parent="iO6xYrpzPYlNcVCM8KC9-21">
          <mxGeometry y="28" width="113" height="8" as="geometry" />
        </mxCell>
        <mxCell id="iO6xYrpzPYlNcVCM8KC9-64" value="Account&lt;br&gt;Project Manager&lt;br&gt;Work Types&lt;br&gt;Estimated Cost&lt;br&gt;Current Cost&lt;br&gt;" style="text;html=1;align=center;verticalAlign=middle;resizable=0;points=[];autosize=1;" vertex="1" parent="iO6xYrpzPYlNcVCM8KC9-21">
          <mxGeometry y="36" width="113" height="74" as="geometry" />
        </mxCell>
        <mxCell id="iO6xYrpzPYlNcVCM8KC9-97" style="edgeStyle=orthogonalEdgeStyle;rounded=0;orthogonalLoop=1;jettySize=auto;html=1;exitX=0.5;exitY=0;exitDx=0;exitDy=0;entryX=0;entryY=0.25;entryDx=0;entryDy=0;startArrow=ERmany;startFill=0;endArrow=none;endFill=0;" edge="1" parent="WIyWlLk6GJQsqaUBKTNV-1" source="iO6xYrpzPYlNcVCM8KC9-6" target="iO6xYrpzPYlNcVCM8KC9-18">
          <mxGeometry relative="1" as="geometry" />
        </mxCell>
        <mxCell id="iO6xYrpzPYlNcVCM8KC9-6" value="Warehouse" style="swimlane;fontStyle=2;align=center;verticalAlign=top;childLayout=stackLayout;horizontal=1;startSize=26;horizontalStack=0;resizeParent=1;resizeLast=0;collapsible=1;marginBottom=0;rounded=0;shadow=0;strokeWidth=1;" vertex="1" parent="WIyWlLk6GJQsqaUBKTNV-1">
          <mxGeometry x="534" y="132" width="113" height="65.5" as="geometry">
            <mxRectangle x="230" y="140" width="160" height="26" as="alternateBounds" />
          </mxGeometry>
        </mxCell>
        <mxCell id="iO6xYrpzPYlNcVCM8KC9-7" value="" style="line;html=1;strokeWidth=1;align=left;verticalAlign=middle;spacingTop=-1;spacingLeft=3;spacingRight=3;rotatable=0;labelPosition=right;points=[];portConstraint=eastwest;" vertex="1" parent="iO6xYrpzPYlNcVCM8KC9-6">
          <mxGeometry y="26" width="113" height="8" as="geometry" />
        </mxCell>
        <mxCell id="iO6xYrpzPYlNcVCM8KC9-23" value="Project Manager(User)" style="swimlane;fontStyle=2;align=center;verticalAlign=top;childLayout=stackLayout;horizontal=1;startSize=28;horizontalStack=0;resizeParent=1;resizeLast=0;collapsible=1;marginBottom=0;rounded=0;shadow=0;strokeWidth=1;" vertex="1" parent="WIyWlLk6GJQsqaUBKTNV-1">
          <mxGeometry x="771" y="400.75" width="134" height="110" as="geometry">
            <mxRectangle x="230" y="140" width="160" height="26" as="alternateBounds" />
          </mxGeometry>
        </mxCell>
        <mxCell id="iO6xYrpzPYlNcVCM8KC9-24" value="" style="line;html=1;strokeWidth=1;align=left;verticalAlign=middle;spacingTop=-1;spacingLeft=3;spacingRight=3;rotatable=0;labelPosition=right;points=[];portConstraint=eastwest;" vertex="1" parent="iO6xYrpzPYlNcVCM8KC9-23">
          <mxGeometry y="28" width="134" height="8" as="geometry" />
        </mxCell>
        <mxCell id="iO6xYrpzPYlNcVCM8KC9-34" value="" style="edgeStyle=orthogonalEdgeStyle;rounded=0;orthogonalLoop=1;jettySize=auto;html=1;startArrow=ERmany;startFill=0;endArrow=none;endFill=0;" edge="1" parent="WIyWlLk6GJQsqaUBKTNV-1" source="iO6xYrpzPYlNcVCM8KC9-32" target="iO6xYrpzPYlNcVCM8KC9-29">
          <mxGeometry relative="1" as="geometry" />
        </mxCell>
        <mxCell id="iO6xYrpzPYlNcVCM8KC9-58" value="" style="edgeStyle=orthogonalEdgeStyle;rounded=0;orthogonalLoop=1;jettySize=auto;html=1;startArrow=ERone;startFill=0;endArrow=ERmany;endFill=0;fillColor=#f8cecc;strokeColor=#b85450;" edge="1" parent="WIyWlLk6GJQsqaUBKTNV-1" source="iO6xYrpzPYlNcVCM8KC9-29" target="iO6xYrpzPYlNcVCM8KC9-56">
          <mxGeometry relative="1" as="geometry" />
        </mxCell>
        <mxCell id="iO6xYrpzPYlNcVCM8KC9-72" value="" style="edgeStyle=orthogonalEdgeStyle;rounded=0;orthogonalLoop=1;jettySize=auto;html=1;startArrow=ERmany;startFill=0;endArrow=ERone;endFill=0;fillColor=#f8cecc;strokeColor=#b85450;" edge="1" parent="WIyWlLk6GJQsqaUBKTNV-1" source="iO6xYrpzPYlNcVCM8KC9-70" target="iO6xYrpzPYlNcVCM8KC9-29">
          <mxGeometry relative="1" as="geometry" />
        </mxCell>
        <mxCell id="iO6xYrpzPYlNcVCM8KC9-77" style="edgeStyle=orthogonalEdgeStyle;rounded=0;orthogonalLoop=1;jettySize=auto;html=1;exitX=1;exitY=0.75;exitDx=0;exitDy=0;entryX=0.25;entryY=0;entryDx=0;entryDy=0;startArrow=ERmany;startFill=0;endArrow=none;endFill=0;" edge="1" parent="WIyWlLk6GJQsqaUBKTNV-1" source="iO6xYrpzPYlNcVCM8KC9-74" target="iO6xYrpzPYlNcVCM8KC9-29">
          <mxGeometry relative="1" as="geometry">
            <Array as="points">
              <mxPoint x="420" y="424" />
            </Array>
          </mxGeometry>
        </mxCell>
        <mxCell id="iO6xYrpzPYlNcVCM8KC9-29" value="Client(Account)" style="swimlane;fontStyle=2;align=center;verticalAlign=top;childLayout=stackLayout;horizontal=1;startSize=28;horizontalStack=0;resizeParent=1;resizeLast=0;collapsible=1;marginBottom=0;rounded=0;shadow=0;strokeWidth=1;" vertex="1" parent="WIyWlLk6GJQsqaUBKTNV-1">
          <mxGeometry x="392" y="463" width="113" height="76.38" as="geometry">
            <mxRectangle x="230" y="140" width="160" height="26" as="alternateBounds" />
          </mxGeometry>
        </mxCell>
        <mxCell id="iO6xYrpzPYlNcVCM8KC9-30" value="" style="line;html=1;strokeWidth=1;align=left;verticalAlign=middle;spacingTop=-1;spacingLeft=3;spacingRight=3;rotatable=0;labelPosition=right;points=[];portConstraint=eastwest;" vertex="1" parent="iO6xYrpzPYlNcVCM8KC9-29">
          <mxGeometry y="28" width="113" height="8" as="geometry" />
        </mxCell>
        <mxCell id="iO6xYrpzPYlNcVCM8KC9-32" value="Client Contact&#xa;(Contact)" style="swimlane;fontStyle=2;align=center;verticalAlign=top;childLayout=stackLayout;horizontal=1;startSize=40;horizontalStack=0;resizeParent=1;resizeLast=0;collapsible=1;marginBottom=0;rounded=0;shadow=0;strokeWidth=1;" vertex="1" parent="WIyWlLk6GJQsqaUBKTNV-1">
          <mxGeometry x="238" y="460.5" width="113" height="81.38" as="geometry">
            <mxRectangle x="230" y="140" width="160" height="26" as="alternateBounds" />
          </mxGeometry>
        </mxCell>
        <mxCell id="iO6xYrpzPYlNcVCM8KC9-33" value="" style="line;html=1;strokeWidth=1;align=left;verticalAlign=middle;spacingTop=-1;spacingLeft=3;spacingRight=3;rotatable=0;labelPosition=right;points=[];portConstraint=eastwest;" vertex="1" parent="iO6xYrpzPYlNcVCM8KC9-32">
          <mxGeometry y="40" width="113" height="8" as="geometry" />
        </mxCell>
        <mxCell id="iO6xYrpzPYlNcVCM8KC9-44" value="" style="edgeStyle=orthogonalEdgeStyle;rounded=0;orthogonalLoop=1;jettySize=auto;html=1;startArrow=ERone;startFill=0;endArrow=ERmany;endFill=0;fillColor=#f8cecc;entryX=0;entryY=0.5;entryDx=0;entryDy=0;strokeColor=#b85450;" edge="1" parent="WIyWlLk6GJQsqaUBKTNV-1" source="iO6xYrpzPYlNcVCM8KC9-35" target="iO6xYrpzPYlNcVCM8KC9-99">
          <mxGeometry relative="1" as="geometry">
            <mxPoint x="721" y="323.0000000000002" as="targetPoint" />
          </mxGeometry>
        </mxCell>
        <mxCell id="iO6xYrpzPYlNcVCM8KC9-35" value="Work Order" style="swimlane;fontStyle=2;align=center;verticalAlign=top;childLayout=stackLayout;horizontal=1;startSize=28;horizontalStack=0;resizeParent=1;resizeLast=0;collapsible=1;marginBottom=0;rounded=0;shadow=0;strokeWidth=1;" vertex="1" parent="WIyWlLk6GJQsqaUBKTNV-1">
          <mxGeometry x="568" y="279.5" width="113" height="86" as="geometry">
            <mxRectangle x="230" y="140" width="160" height="26" as="alternateBounds" />
          </mxGeometry>
        </mxCell>
        <mxCell id="iO6xYrpzPYlNcVCM8KC9-36" value="" style="line;html=1;strokeWidth=1;align=left;verticalAlign=middle;spacingTop=-1;spacingLeft=3;spacingRight=3;rotatable=0;labelPosition=right;points=[];portConstraint=eastwest;" vertex="1" parent="iO6xYrpzPYlNcVCM8KC9-35">
          <mxGeometry y="28" width="113" height="8" as="geometry" />
        </mxCell>
        <mxCell id="iO6xYrpzPYlNcVCM8KC9-65" value="Work Type&lt;br&gt;Project&lt;br&gt;Cost" style="text;html=1;align=center;verticalAlign=middle;resizable=0;points=[];autosize=1;" vertex="1" parent="iO6xYrpzPYlNcVCM8KC9-35">
          <mxGeometry y="36" width="113" height="46" as="geometry" />
        </mxCell>
        <mxCell id="iO6xYrpzPYlNcVCM8KC9-50" value="" style="edgeStyle=orthogonalEdgeStyle;rounded=0;orthogonalLoop=1;jettySize=auto;html=1;startArrow=ERmany;startFill=0;endArrow=ERone;endFill=0;exitX=1;exitY=0.5;exitDx=0;exitDy=0;fillColor=#f8cecc;strokeColor=#b85450;" edge="1" parent="WIyWlLk6GJQsqaUBKTNV-1" source="iO6xYrpzPYlNcVCM8KC9-99" target="iO6xYrpzPYlNcVCM8KC9-48">
          <mxGeometry relative="1" as="geometry">
            <mxPoint x="943" y="322" as="sourcePoint" />
          </mxGeometry>
        </mxCell>
        <mxCell id="iO6xYrpzPYlNcVCM8KC9-48" value="Subcontractor(Account)" style="swimlane;fontStyle=2;align=center;verticalAlign=top;childLayout=stackLayout;horizontal=1;startSize=28;horizontalStack=0;resizeParent=1;resizeLast=0;collapsible=1;marginBottom=0;rounded=0;shadow=0;strokeWidth=1;" vertex="1" parent="WIyWlLk6GJQsqaUBKTNV-1">
          <mxGeometry x="956" y="279" width="152" height="87" as="geometry">
            <mxRectangle x="230" y="140" width="160" height="26" as="alternateBounds" />
          </mxGeometry>
        </mxCell>
        <mxCell id="iO6xYrpzPYlNcVCM8KC9-49" value="" style="line;html=1;strokeWidth=1;align=left;verticalAlign=middle;spacingTop=-1;spacingLeft=3;spacingRight=3;rotatable=0;labelPosition=right;points=[];portConstraint=eastwest;" vertex="1" parent="iO6xYrpzPYlNcVCM8KC9-48">
          <mxGeometry y="28" width="152" height="8" as="geometry" />
        </mxCell>
        <mxCell id="iO6xYrpzPYlNcVCM8KC9-55" style="edgeStyle=orthogonalEdgeStyle;rounded=0;orthogonalLoop=1;jettySize=auto;html=1;exitX=0;exitY=0.5;exitDx=0;exitDy=0;entryX=1;entryY=0.5;entryDx=0;entryDy=0;startArrow=ERone;startFill=0;endArrow=ERmany;endFill=0;fillColor=#f8cecc;strokeColor=#b85450;" edge="1" parent="WIyWlLk6GJQsqaUBKTNV-1" source="iO6xYrpzPYlNcVCM8KC9-35" target="iO6xYrpzPYlNcVCM8KC9-52">
          <mxGeometry relative="1" as="geometry" />
        </mxCell>
        <mxCell id="iO6xYrpzPYlNcVCM8KC9-52" value="Work Order Material" style="swimlane;fontStyle=2;align=center;verticalAlign=top;childLayout=stackLayout;horizontal=1;startSize=26;horizontalStack=0;resizeParent=1;resizeLast=0;collapsible=1;marginBottom=0;rounded=0;shadow=0;strokeWidth=1;" vertex="1" parent="WIyWlLk6GJQsqaUBKTNV-1">
          <mxGeometry x="229" y="279.5" width="116" height="78.5" as="geometry">
            <mxRectangle x="230" y="140" width="160" height="26" as="alternateBounds" />
          </mxGeometry>
        </mxCell>
        <mxCell id="iO6xYrpzPYlNcVCM8KC9-53" value="" style="line;html=1;strokeWidth=1;align=left;verticalAlign=middle;spacingTop=-1;spacingLeft=3;spacingRight=3;rotatable=0;labelPosition=right;points=[];portConstraint=eastwest;" vertex="1" parent="iO6xYrpzPYlNcVCM8KC9-52">
          <mxGeometry y="26" width="116" height="8" as="geometry" />
        </mxCell>
        <mxCell id="iO6xYrpzPYlNcVCM8KC9-61" value="" style="edgeStyle=orthogonalEdgeStyle;rounded=0;orthogonalLoop=1;jettySize=auto;html=1;startArrow=none;startFill=0;endArrow=ERmany;endFill=0;" edge="1" parent="WIyWlLk6GJQsqaUBKTNV-1" source="iO6xYrpzPYlNcVCM8KC9-59" target="iO6xYrpzPYlNcVCM8KC9-56">
          <mxGeometry relative="1" as="geometry" />
        </mxCell>
        <mxCell id="iO6xYrpzPYlNcVCM8KC9-56" value="Bid" style="swimlane;fontStyle=2;align=center;verticalAlign=top;childLayout=stackLayout;horizontal=1;startSize=28;horizontalStack=0;resizeParent=1;resizeLast=0;collapsible=1;marginBottom=0;rounded=0;shadow=0;strokeWidth=1;" vertex="1" parent="WIyWlLk6GJQsqaUBKTNV-1">
          <mxGeometry x="392" y="575" width="113" height="136" as="geometry">
            <mxRectangle x="230" y="140" width="160" height="26" as="alternateBounds" />
          </mxGeometry>
        </mxCell>
        <mxCell id="iO6xYrpzPYlNcVCM8KC9-57" value="" style="line;html=1;strokeWidth=1;align=left;verticalAlign=middle;spacingTop=-1;spacingLeft=3;spacingRight=3;rotatable=0;labelPosition=right;points=[];portConstraint=eastwest;" vertex="1" parent="iO6xYrpzPYlNcVCM8KC9-56">
          <mxGeometry y="28" width="113" height="8" as="geometry" />
        </mxCell>
        <mxCell id="iO6xYrpzPYlNcVCM8KC9-78" value="Project&lt;br&gt;Client&lt;br&gt;Account" style="text;html=1;align=center;verticalAlign=middle;resizable=0;points=[];autosize=1;" vertex="1" parent="iO6xYrpzPYlNcVCM8KC9-56">
          <mxGeometry y="36" width="113" height="46" as="geometry" />
        </mxCell>
        <mxCell id="iO6xYrpzPYlNcVCM8KC9-59" value="Salesperson(User)" style="swimlane;fontStyle=2;align=center;verticalAlign=top;childLayout=stackLayout;horizontal=1;startSize=28;horizontalStack=0;resizeParent=1;resizeLast=0;collapsible=1;marginBottom=0;rounded=0;shadow=0;strokeWidth=1;" vertex="1" parent="WIyWlLk6GJQsqaUBKTNV-1">
          <mxGeometry x="234" y="575" width="113" height="136" as="geometry">
            <mxRectangle x="230" y="140" width="160" height="26" as="alternateBounds" />
          </mxGeometry>
        </mxCell>
        <mxCell id="iO6xYrpzPYlNcVCM8KC9-60" value="" style="line;html=1;strokeWidth=1;align=left;verticalAlign=middle;spacingTop=-1;spacingLeft=3;spacingRight=3;rotatable=0;labelPosition=right;points=[];portConstraint=eastwest;" vertex="1" parent="iO6xYrpzPYlNcVCM8KC9-59">
          <mxGeometry y="28" width="113" height="8" as="geometry" />
        </mxCell>
        <mxCell id="iO6xYrpzPYlNcVCM8KC9-63" value="&lt;font&gt;&lt;font style=&quot;font-size: 30px&quot;&gt;Bid The Builder Construction&lt;/font&gt;&lt;br&gt;&lt;/font&gt;" style="text;html=1;align=center;verticalAlign=middle;resizable=0;points=[];autosize=1;" vertex="1" parent="WIyWlLk6GJQsqaUBKTNV-1">
          <mxGeometry x="588" y="32" width="392" height="23" as="geometry" />
        </mxCell>
        <mxCell id="iO6xYrpzPYlNcVCM8KC9-73" style="edgeStyle=orthogonalEdgeStyle;rounded=0;orthogonalLoop=1;jettySize=auto;html=1;exitX=1;exitY=0.5;exitDx=0;exitDy=0;entryX=0.25;entryY=0;entryDx=0;entryDy=0;startArrow=ERmany;startFill=0;endArrow=ERone;endFill=0;" edge="1" parent="WIyWlLk6GJQsqaUBKTNV-1" source="iO6xYrpzPYlNcVCM8KC9-70" target="iO6xYrpzPYlNcVCM8KC9-21">
          <mxGeometry relative="1" as="geometry" />
        </mxCell>
        <mxCell id="iO6xYrpzPYlNcVCM8KC9-76" value="" style="edgeStyle=orthogonalEdgeStyle;rounded=0;orthogonalLoop=1;jettySize=auto;html=1;startArrow=ERmany;startFill=0;endArrow=none;endFill=0;" edge="1" parent="WIyWlLk6GJQsqaUBKTNV-1" source="iO6xYrpzPYlNcVCM8KC9-70" target="iO6xYrpzPYlNcVCM8KC9-74">
          <mxGeometry relative="1" as="geometry" />
        </mxCell>
        <mxCell id="iO6xYrpzPYlNcVCM8KC9-70" value="Invoice" style="swimlane;fontStyle=2;align=center;verticalAlign=top;childLayout=stackLayout;horizontal=1;startSize=28;horizontalStack=0;resizeParent=1;resizeLast=0;collapsible=1;marginBottom=0;rounded=0;shadow=0;strokeWidth=1;" vertex="1" parent="WIyWlLk6GJQsqaUBKTNV-1">
          <mxGeometry x="392" y="346" width="113" height="76.38" as="geometry">
            <mxRectangle x="230" y="140" width="160" height="26" as="alternateBounds" />
          </mxGeometry>
        </mxCell>
        <mxCell id="iO6xYrpzPYlNcVCM8KC9-71" value="" style="line;html=1;strokeWidth=1;align=left;verticalAlign=middle;spacingTop=-1;spacingLeft=3;spacingRight=3;rotatable=0;labelPosition=right;points=[];portConstraint=eastwest;" vertex="1" parent="iO6xYrpzPYlNcVCM8KC9-70">
          <mxGeometry y="28" width="113" height="8" as="geometry" />
        </mxCell>
        <mxCell id="iO6xYrpzPYlNcVCM8KC9-74" value="Payment" style="swimlane;fontStyle=2;align=center;verticalAlign=top;childLayout=stackLayout;horizontal=1;startSize=28;horizontalStack=0;resizeParent=1;resizeLast=0;collapsible=1;marginBottom=0;rounded=0;shadow=0;strokeWidth=1;" vertex="1" parent="WIyWlLk6GJQsqaUBKTNV-1">
          <mxGeometry x="238" y="366.5" width="116" height="76.38" as="geometry">
            <mxRectangle x="230" y="140" width="160" height="26" as="alternateBounds" />
          </mxGeometry>
        </mxCell>
        <mxCell id="iO6xYrpzPYlNcVCM8KC9-75" value="" style="line;html=1;strokeWidth=1;align=left;verticalAlign=middle;spacingTop=-1;spacingLeft=3;spacingRight=3;rotatable=0;labelPosition=right;points=[];portConstraint=eastwest;" vertex="1" parent="iO6xYrpzPYlNcVCM8KC9-74">
          <mxGeometry y="28" width="116" height="8" as="geometry" />
        </mxCell>
        <mxCell id="iO6xYrpzPYlNcVCM8KC9-85" value="" style="edgeStyle=orthogonalEdgeStyle;rounded=0;orthogonalLoop=1;jettySize=auto;html=1;startArrow=ERmany;startFill=0;endArrow=ERone;endFill=0;fillColor=#f8cecc;strokeColor=#b85450;" edge="1" parent="WIyWlLk6GJQsqaUBKTNV-1" source="iO6xYrpzPYlNcVCM8KC9-80" target="iO6xYrpzPYlNcVCM8KC9-83">
          <mxGeometry relative="1" as="geometry" />
        </mxCell>
        <mxCell id="iO6xYrpzPYlNcVCM8KC9-80" value="Raw Material Order" style="swimlane;fontStyle=2;align=center;verticalAlign=top;childLayout=stackLayout;horizontal=1;startSize=26;horizontalStack=0;resizeParent=1;resizeLast=0;collapsible=1;marginBottom=0;rounded=0;shadow=0;strokeWidth=1;" vertex="1" parent="WIyWlLk6GJQsqaUBKTNV-1">
          <mxGeometry x="240" y="14" width="116" height="69.5" as="geometry">
            <mxRectangle x="230" y="140" width="160" height="26" as="alternateBounds" />
          </mxGeometry>
        </mxCell>
        <mxCell id="iO6xYrpzPYlNcVCM8KC9-81" value="" style="line;html=1;strokeWidth=1;align=left;verticalAlign=middle;spacingTop=-1;spacingLeft=3;spacingRight=3;rotatable=0;labelPosition=right;points=[];portConstraint=eastwest;" vertex="1" parent="iO6xYrpzPYlNcVCM8KC9-80">
          <mxGeometry y="26" width="116" height="8" as="geometry" />
        </mxCell>
        <mxCell id="iO6xYrpzPYlNcVCM8KC9-87" style="edgeStyle=orthogonalEdgeStyle;rounded=0;orthogonalLoop=1;jettySize=auto;html=1;exitX=0.75;exitY=0;exitDx=0;exitDy=0;entryX=0.25;entryY=1;entryDx=0;entryDy=0;startArrow=ERmany;startFill=0;endArrow=ERone;endFill=0;" edge="1" parent="WIyWlLk6GJQsqaUBKTNV-1" source="iO6xYrpzPYlNcVCM8KC9-3" target="iO6xYrpzPYlNcVCM8KC9-83">
          <mxGeometry relative="1" as="geometry" />
        </mxCell>
        <mxCell id="iO6xYrpzPYlNcVCM8KC9-83" value="Supplier(Account)" style="swimlane;fontStyle=2;align=center;verticalAlign=top;childLayout=stackLayout;horizontal=1;startSize=26;horizontalStack=0;resizeParent=1;resizeLast=0;collapsible=1;marginBottom=0;rounded=0;shadow=0;strokeWidth=1;" vertex="1" parent="WIyWlLk6GJQsqaUBKTNV-1">
          <mxGeometry x="436" y="14" width="116" height="69.5" as="geometry">
            <mxRectangle x="230" y="140" width="160" height="26" as="alternateBounds" />
          </mxGeometry>
        </mxCell>
        <mxCell id="iO6xYrpzPYlNcVCM8KC9-84" value="" style="line;html=1;strokeWidth=1;align=left;verticalAlign=middle;spacingTop=-1;spacingLeft=3;spacingRight=3;rotatable=0;labelPosition=right;points=[];portConstraint=eastwest;" vertex="1" parent="iO6xYrpzPYlNcVCM8KC9-83">
          <mxGeometry y="26" width="116" height="8" as="geometry" />
        </mxCell>
        <mxCell id="iO6xYrpzPYlNcVCM8KC9-99" value="SubContractor Contract" style="swimlane;fontStyle=2;align=center;verticalAlign=top;childLayout=stackLayout;horizontal=1;startSize=28;horizontalStack=0;resizeParent=1;resizeLast=0;collapsible=1;marginBottom=0;rounded=0;shadow=0;strokeWidth=1;" vertex="1" parent="WIyWlLk6GJQsqaUBKTNV-1">
          <mxGeometry x="733" y="278.5" width="136" height="87" as="geometry">
            <mxRectangle x="230" y="140" width="160" height="26" as="alternateBounds" />
          </mxGeometry>
        </mxCell>
        <mxCell id="iO6xYrpzPYlNcVCM8KC9-100" value="" style="line;html=1;strokeWidth=1;align=left;verticalAlign=middle;spacingTop=-1;spacingLeft=3;spacingRight=3;rotatable=0;labelPosition=right;points=[];portConstraint=eastwest;" vertex="1" parent="iO6xYrpzPYlNcVCM8KC9-99">
          <mxGeometry y="28" width="136" height="8" as="geometry" />
        </mxCell>
      </root>
    </mxGraphModel>
  </diagram>
</mxfile>
